<svg viewBox="0 0 768 768" xmlns="http://www.w3.org/2000/svg"><path d="m0 0h768v768h-768z" fill="#fff"/><path d="m355.08 265.72c7.84 0 14.19-6.35 14.19-14.19s-6.35-14.19-14.19-14.19-14.18 6.35-14.19 14.19c0 7.84 6.35 14.18 14.19 14.19zm0-18.59c2.43 0 4.4 1.97 4.4 4.4 0 2.42-1.97 4.39-4.4 4.4-2.43 0-4.39-1.97-4.4-4.4 0-2.43 1.97-4.39 4.4-4.4z"/><path d="m414.13 265.72c7.84 0 14.18-6.35 14.19-14.19 0-7.84-6.35-14.19-14.19-14.19s-14.19 6.35-14.19 14.19 6.36 14.18 14.19 14.19zm0-18.59c2.42 0 4.38 1.97 4.39 4.4 0 2.43-1.97 4.39-4.39 4.4-2.43 0-4.4-1.97-4.4-4.4s1.98-4.39 4.4-4.4z"/><path d="m355.34 270.92c-7.84 0-14.19 6.35-14.19 14.19s6.35 14.19 14.19 14.19 14.19-6.35 14.19-14.19-6.35-14.19-14.19-14.19zm0 18.59c-2.43 0-4.4-1.97-4.4-4.39 0-2.43 1.97-4.39 4.4-4.4 2.42 0 4.39 1.97 4.4 4.4-.01 2.42-1.98 4.39-4.4 4.39z"/><path d="m414.38 270.92c-7.84 0-14.18 6.36-14.18 14.19s6.35 14.19 14.18 14.19 14.19-6.35 14.19-14.19-6.35-14.19-14.19-14.19zm0 18.59c-2.42 0-4.39-1.97-4.39-4.39 0-2.43 1.97-4.39 4.39-4.4 2.42 0 4.4 1.97 4.4 4.4s-1.97 4.39-4.4 4.39z"/><path d="m355.53 305.13c-7.84 0-14.19 6.35-14.19 14.19s6.35 14.18 14.19 14.19c7.84 0 14.19-6.35 14.19-14.19s-6.36-14.19-14.19-14.19zm0 18.59c-2.42 0-4.39-1.97-4.4-4.39.01-2.43 1.98-4.4 4.4-4.4 2.43 0 4.4 1.97 4.4 4.4 0 2.42-1.98 4.39-4.4 4.39z"/><path d="m414.57 305.13c-7.84 0-14.18 6.36-14.18 14.19s6.34 14.18 14.18 14.19c7.84 0 14.2-6.35 14.2-14.19s-6.36-14.19-14.2-14.19zm0 18.59c-2.42 0-4.39-1.97-4.39-4.39 0-2.43 1.97-4.4 4.39-4.4 2.43 0 4.4 1.97 4.4 4.4s-1.96 4.39-4.4 4.39z"/><path d="m289.97 235.91c-1.29 0-2.55.52-3.46 1.43s-1.43 2.17-1.43 3.46v12.18c0 1.29.52 2.55 1.43 3.46.92.91 2.18 1.44 3.46 1.44h12.57c1.29 0 2.55-.53 3.46-1.44.92-.91 1.44-2.17 1.44-3.46v-12.18c0-1.29-.52-2.55-1.44-3.46-.91-.91-2.17-1.43-3.46-1.43zm7.67 12.18h-2.77v-2.39h2.77z"/><path d="m302.66 274.46h-12.56c-1.29 0-2.55.52-3.46 1.43s-1.43 2.17-1.43 3.46v12.18c0 1.29.52 2.55 1.43 3.46s2.18 1.44 3.46 1.44h12.56c1.29 0 2.55-.52 3.46-1.44.91-.91 1.44-2.17 1.44-3.46v-12.18c0-1.29-.52-2.55-1.44-3.46-.91-.91-2.17-1.43-3.46-1.43zm-4.9 12.18h-2.77v-2.38h2.77z"/><path d="m302.66 313.06h-12.56c-1.29 0-2.55.52-3.46 1.44-.91.91-1.43 2.17-1.43 3.46v12.18c0 1.29.52 2.55 1.43 3.46.92.91 2.18 1.44 3.46 1.44h12.56c1.29 0 2.55-.52 3.46-1.44.91-.91 1.44-2.17 1.44-3.46v-12.18c0-1.28-.53-2.55-1.44-3.46-.91-.92-2.17-1.44-3.46-1.44zm-4.89 12.19h-2.77v-2.39h2.77z"/><path d="m465.34 257.81h12.57c1.29 0 2.55-.52 3.46-1.43s1.43-2.18 1.43-3.46v-12.18c0-1.29-.52-2.55-1.43-3.46s-2.17-1.43-3.46-1.43h-12.57c-1.29 0-2.55.52-3.46 1.43s-1.43 2.17-1.43 3.46v12.18c0 1.29.52 2.55 1.43 3.46s2.18 1.43 3.46 1.43zm7.67-9.79h-2.78v-2.39h2.78z"/><path d="m478.03 274.39h-12.56c-1.29 0-2.55.52-3.46 1.43s-1.43 2.17-1.43 3.46v12.18c0 1.29.52 2.55 1.43 3.46s2.18 1.43 3.46 1.43h12.56c1.28 0 2.55-.52 3.46-1.43s1.43-2.17 1.43-3.46v-12.18c0-1.29-.52-2.55-1.43-3.46s-2.18-1.43-3.46-1.43zm-4.9 12.18h-2.76v-2.39h2.76z"/><path d="m478.03 312.99h-12.56c-1.29 0-2.55.52-3.46 1.44-.91.91-1.43 2.17-1.43 3.46v12.18c0 1.29.52 2.55 1.43 3.46s2.18 1.44 3.46 1.44h12.56c1.29 0 2.55-.53 3.46-1.44s1.43-2.17 1.43-3.46v-12.18c0-1.29-.52-2.55-1.43-3.46-.91-.92-2.17-1.44-3.46-1.44zm-4.89 12.18h-2.77v-2.39h2.77z"/><path d="m511.3 503.94v-263.67c-.04-.54-.34-6.64-2.74-15.66-1.8-6.76-4.78-15.17-9.77-24.05-7.46-13.31-19.57-27.68-38.52-38.5-18.94-10.85-44.51-18.06-78.45-18.05-29.9 0-53.04 5.57-70.8 14.37-13.32 6.59-23.53 14.98-31.19 23.84-11.51 13.31-17.26 27.54-20.16 38.53-2.9 11.01-2.97 18.88-2.98 19.94v263.29.02c0 .95.08 7.24 2.18 16.32 1.59 6.81 4.33 15.19 9.11 24.01 7.15 13.22 19.05 27.39 37.98 37.98 11.09 6.23 24.54 11.19 40.69 14.24v17.55c0 5.48 4.44 9.92 9.92 9.92s9.92-4.44 9.92-9.92v-14.91c2.68.22 5.44.37 8.25.49v14.41c0 5.48 4.44 9.92 9.92 9.92s9.92-4.44 9.92-9.92v-14.37c3.05-.12 6.02-.3 8.92-.53v14.9c0 5.48 4.44 9.92 9.92 9.92s9.92-4.44 9.92-9.92v-17.51c12.22-2.31 22.86-5.72 32.08-9.98 13.32-6.14 23.66-13.99 31.49-22.43 11.76-12.65 17.85-26.44 20.99-37.52 3.14-11.11 3.38-19.58 3.39-22.18 0-.21 0-.38 0-.51zm-144.8 75.56v-155.01h8.25v155.57c-2.84-.13-5.58-.33-8.25-.56zm-45.44-371.46c0-.47.05-1.1.19-1.63.1-.4.24-.74.4-1 .26-.39.45-.66 1.23-1.08.78-.39 2.33-.91 5.2-.91.88 0 2.08.18 3.71.69 2.84.87 6.8 2.78 11.74 5.25 7.43 3.68 17.11 8.49 29.81 12.3 12.72 3.81 28.46 6.62 48.17 6.61 6.57 0 13.6-.32 21.09-1-7.82 31.56-10.19 55.95-10.19 73.83s2.24 28.66 3.8 34.39c-14.17 20.7-21.49 40.2-25.26 54.83-1.88 7.31-2.88 13.4-3.41 17.85h-45.12c-.53-4.53-1.53-10.75-3.42-18.18-3.79-14.83-11.2-34.52-25.57-55 1.18-6.5 3.36-21.16 3.36-40.63 0-23.69-3.26-54.54-15.73-86.32zm73.53 372.05v-155.6h8.92v155.02c-2.88.25-5.85.45-8.92.58zm95.23-61.65c-1.34 5.54-3.6 12.15-7.4 18.91-5.72 10.13-14.74 20.59-29.88 28.8-7.87 4.26-17.47 7.9-29.18 10.43v-158.01c0-.48-.05-.95-.11-1.42v-.81c0-.58.19-9.58 3.85-23.26 3.67-13.67 10.8-32.02 24.74-51.47l2.64-3.68-1.71-4.13s-.03-.06-.03-.06c-.31-.83-4-11.08-4-32.63 0-17.12 2.34-41.38 10.64-73.67.38-1.48.61-2.97.61-4.52.01-1.93-.39-4.01-1.37-5.91-.72-1.42-1.76-2.67-2.88-3.6-1.7-1.41-3.48-2.11-4.99-2.5-1.53-.38-2.86-.47-4-.48-2.03.02-3.59.29-4.51.5-7.45.71-14.35 1.03-20.73 1.03-27.72-.03-45.72-5.86-59.2-11.74-6.75-2.96-12.36-5.98-17.66-8.46-2.66-1.24-5.25-2.35-7.96-3.21-2.7-.85-5.55-1.44-8.6-1.44-4.29 0-8.08.69-11.37 2.11-2.46 1.06-4.59 2.52-6.27 4.22-2.54 2.55-3.99 5.49-4.76 8.06-.77 2.58-.94 4.84-.95 6.54 0 1.72.18 2.87.24 3.22l.14.85.32.8c11.87 29.67 15.03 58.96 15.02 81.46 0 12.33-.94 22.61-1.88 29.75-.46 3.57-.93 6.36-1.27 8.22-.17.93-.31 1.64-.41 2.09l-.11.5-.02.11v.02s0 0 0 0l-.83 3.63 2.2 3.01c14.34 19.57 21.47 38.44 25.02 52.35 1.78 6.96 3.51 22.32 3.51 22.32v1.69c0 .17-.03.35-.03.52v157.99c-9.98-2.15-18.48-5.09-25.69-8.54-11.34-5.42-19.63-12.06-25.86-18.99-9.33-10.4-14.06-21.61-16.44-30.36-1.19-4.36-1.79-8.08-2.09-10.7-.15-1.3-.22-2.33-.25-3.01-.02-.35-.03-.6-.03-.77v-.18s0-.03 0-.03v-.02s0-263.27 0-263.27v-.02s0 0 0 0v-.18c.02-1.05.24-6.55 2.14-14.05 1.42-5.62 3.79-12.35 7.65-19.23 5.83-10.33 14.9-20.98 29.82-29.3 14.93-8.3 35.95-14.33 65.93-14.34 27.75 0 48.15 5.19 63.28 12.58 11.35 5.56 19.8 12.38 26.24 19.53 9.65 10.7 14.79 22.24 17.48 31.1 1.35 4.42 2.08 8.15 2.47 10.71.19 1.28.3 2.26.36 2.88.03.32.04.54.05.66v263.21.18c0 1.13-.11 6.61-1.89 13.99z"/></svg>